Description

Poster: http://cdn.piczend.com/image/sqtlbdxvjfm4crobqzi7quapm.jpeg
Release date: 2008
Genre: Action, Adventure, Crime, Thriller
Plot: Seeking revenge for the death of his love, secret agent James Bond sets out to stop an environmentalist from taking control of a country's valuable resource.
--------------------------------

Runtime: 1 h 46 min
Rating: 6.7/10
Votes: 192,429
Writer(s)/Director(s): Paul Haggis, Neal Purvis/Marc Forster
Actors: Daniel Craig, Olga Kurylenko, Mathieu Amalric, Judi Dench
Trailer: http://www.imdb.com/video/imdb/vi1024524313/

Screenshots:
 
http://cdn.piczend.com/image/clxnetasqycxqxxhgqyeqiqip.jpeg
 
http://cdn.piczend.com/image/oouj0dlc1zhlzq1otoegcmntb.jpeg
 
http://cdn.piczend.com/image/rjk8spm6awxe7q5xygne8bxm6.jpeg
 
http://cdn.piczend.com/image/4pjhikohkmzazwblkfj1a6phk.jpeg


Mediainfo:
General
Complete name : 	Quantum of Solace (2008) BRRip 528p [Zend]/Quantum of Solace (2008) BRRip 528p [Zend].mp4
Format : 	MPEG-4
Format profile : 	Base Media
Codec ID : 	isom
File size : 	1.67 GiB
Duration : 	1h 46mn
Overall bit rate : 	2 249 Kbps
Writing application : 	Lavf53.21.1

Video
ID : 	1
Format : 	AVC
Format/Info : 	Advanced Video Codec
Format profile : 	Main@L3.1
Format settings, CABAC : 	Yes
Format settings, ReFrames : 	3 frames
Codec ID : 	avc1
Codec ID/Info : 	Advanced Video Coding
Duration : 	1h 46mn
Bit rate : 	1 500 Kbps
Width : 	1 280 pixels
Height : 	528 pixels
Display aspect ratio : 	2.40:1
Frame rate mode : 	Constant
Frame rate : 	23.976 fps
Color space : 	YUV
Chroma subsampling : 	4:2:0
Bit depth : 	8 bits
Scan type : 	Progressive
Bits/(Pixel*Frame) : 	0.093
Stream size : 	1.10 GiB (66%)
Writing library : 	x264 core 123 r2189 35cf912
Encoding settings : 	cabac=1 / ref=3 / deblock=1:0:0 / analyse=0x1:0x111 / me=hex / subme=7 / psy=1 / psy_rd=1.00:0.00 / mixed_ref=0 / me_range=16 / chroma_me=1 / trellis=1 / 8x8dct=0 / cqm=0 / deadzone=21,11 / fast_pskip=1 / chroma_qp_offset=-2 / threads=6 / sliced_threads=0 / nr=0 / decimate=1 / interlaced=0 / bluray_compat=0 / constrained_intra=0 / bframes=3 / b_pyramid=0 / b_adapt=1 / b_bias=0 / direct=1 / weightb=0 / open_gop=1 / weightp=2 / keyint=250 / keyint_min=23 / scenecut=40 / intra_refresh=0 / rc_lookahead=40 / rc=abr / mbtree=1 / bitrate=1500 / ratetol=1.0 / qcomp=0.60 / qpmin=0 / qpmax=69 / qpstep=4 / ip_ratio=1.25 / aq=1:1.00
Language : 	English

Audio
ID : 	2
Format : 	DTS
Format/Info : 	Digital Theater Systems
Codec ID : 	A9
Duration : 	1h 46mn
Bit rate mode : 	Constant
Bit rate : 	754 Kbps
Channel(s) : 	6 channels
Channel positions : 	Front: L C R, Side: L R, LFE
Sampling rate : 	48.0 KHz
Bit depth : 	24 bits
Compression mode : 	Lossy
Delay relative to video : 	42ms
Stream size : 	573 MiB (34%)
Language : 	English
